<?xml version="1.0" encoding="UTF-8"?>
<svg id="Layer_2" data-name="Layer 2" xmlns="http://www.w3.org/2000/svg" viewBox="0 0 225.38 189.09">
  <defs>
    <style>
      .cls-1 {
        fill: rgba(255, 255, 255, .85);
      }
    </style>
  </defs>
  <g id="Layer_1-2" data-name="Layer 1">
    <path class="cls-1" d="m172.59,29.06v63.84h-8.91c-8.06,0-13.69,2.81-18,7.69l-2.53,2.81h-9.38c-12.82,0-21.96,6.51-24.98,17.49-6.95-2.11-14.48-3.24-22.37-3.24-30.75,0-56.06,17.16-63.28,40.97h84.56v13.97H29.44c-19.59,0-29.44-9.66-29.44-28.97V29.06C0,9.75,9.84,0,29.44,0h113.72c19.69,0,29.44,9.75,29.44,29.06Zm-118.31,37.78c.09,20.06,14.16,34.97,32.06,35.16,17.91.19,32.06-15.09,32.06-35.16,0-18.84-14.16-34.41-32.06-34.41s-32.16,15.56-32.06,34.41Z"/>
    <path class="cls-1" d="m133.78,189.09h77.72c9.19,0,13.88-4.59,13.88-13.69v-46.03c0-9.19-4.69-13.78-13.88-13.78h-11.16c-3.47,0-4.59-.47-6.66-2.81l-3.38-4.03c-2.06-2.44-4.5-3.66-9-3.66h-17.62c-4.5,0-6.84,1.31-8.91,3.66l-3.56,4.03c-1.88,2.25-3,2.81-6.56,2.81h-10.88c-9.19,0-13.88,4.59-13.88,13.78v46.03c0,9.09,4.69,13.69,13.88,13.69Zm39-11.06c-14.53,0-26.16-11.53-26.16-26.16s11.62-26.06,26.16-26.06,25.97,11.62,25.97,26.06-11.62,26.16-25.97,26.16Zm-.09-7.5c10.22,0,18.47-8.34,18.47-18.66s-8.25-18.47-18.47-18.47-18.56,8.25-18.56,18.47,8.25,18.66,18.56,18.66Zm34.78-31.12c-3.19,0-5.91-2.53-5.91-6,0-3.19,2.72-5.91,5.91-5.91s6,2.72,6,5.91c0,3.47-2.72,6-6,6Z"/>
  </g>
</svg>