<?xml version="1.0" encoding="UTF-8"?>
<svg id="Layer_2" data-name="Layer 2" xmlns="http://www.w3.org/2000/svg" viewBox="0 0 185.48 185.18">
  <defs>
    <style>
      .cls-1 {
        fill: rgba(255, 255, 255, .85);
      }
    </style>
  </defs>
  <g id="Layer_1-2" data-name="Layer 1">
    <path class="cls-1" d="m120.66,34.15H29.72c-9.38,0-14.62,5.06-14.62,14.81v106.41c0,9.75,5.25,14.72,14.62,14.72h106.78c9.38,0,14.53-4.97,14.53-14.72v-90.11l15.09-15.12v105.98c0,19.41-9.84,29.06-29.44,29.06H29.44c-19.5,0-29.44-9.66-29.44-29.06V48.12c0-19.31,9.94-29.06,29.44-29.06h106.31l-15.09,15.09Z"/>
    <path class="cls-1" d="m63.56,124.43l18.28-7.97L169.41,28.99l-12.84-12.66-87.47,87.47-8.44,17.62c-.75,1.59,1.12,3.75,2.91,3ZM176.34,22.15l6.75-6.94c3.19-3.38,3.19-7.88,0-10.97l-2.16-2.25c-2.91-2.91-7.5-2.53-10.59.47l-6.84,6.75,12.84,12.94Z"/>
  </g>
</svg>