<?xml version="1.0" encoding="UTF-8"?>
<svg id="Layer_2" data-name="Layer 2" xmlns="http://www.w3.org/2000/svg" viewBox="0 0 172.87 172.88">
  <defs>
    <style>
      .cls-1 {
        fill: rgba(13, 148, 136, .85);
      }
    </style>
  </defs>
  <g id="Layer_1-2" data-name="Layer 1">
    <path class="cls-1" d="m161.91,11.06C152.34,1.5,138.84,0,122.81,0H49.78c-15.75,0-29.25,1.5-38.81,11.06C1.41,20.62,0,34.03,0,49.78v73.03c0,16.03,1.41,29.44,10.97,39,9.56,9.56,23.06,11.06,39,11.06h72.84c16.03,0,29.53-1.5,39.09-11.06,9.56-9.56,10.97-22.97,10.97-39V49.97c0-16.03-1.41-29.34-10.97-38.91Zm-4.12,36.38v78c0,9.66-1.22,19.69-6.94,25.31-5.62,5.72-15.75,7.03-25.41,7.03H47.44c-9.66,0-19.78-1.31-25.5-7.03-5.62-5.62-6.84-15.66-6.84-25.31V47.72c0-9.94,1.22-19.97,6.84-25.69,5.72-5.62,15.94-6.94,25.78-6.94h77.72c9.66,0,19.78,1.31,25.41,7.03,5.72,5.62,6.94,15.66,6.94,25.31Z"/>
    <path class="cls-1" d="m43.03,86.44c0,4.59,3.28,7.69,8.06,7.69h27.56v27.66c0,4.69,3.09,7.97,7.69,7.97s7.97-3.19,7.97-7.97v-27.66h27.66c4.69,0,7.97-3.09,7.97-7.69s-3.28-7.97-7.97-7.97h-27.66v-27.56c0-4.78-3.28-8.06-7.97-8.06s-7.69,3.28-7.69,8.06v27.56h-27.56c-4.88,0-8.06,3.28-8.06,7.97Z"/>
  </g>
</svg>