<?xml version="1.0" encoding="UTF-8"?>
<svg id="Layer_2" data-name="Layer 2" xmlns="http://www.w3.org/2000/svg" viewBox="0 0 223.88 197.16">
  <defs>
    <style>
      .cls-1 {
        fill: rgba(139, 92, 246, .85);
      }
    </style>
  </defs>
  <g id="Layer_1-2" data-name="Layer 1">
    <path class="cls-1" d="m86.62,182.06v-55.12c0-4.31,2.91-7.13,7.22-7.13h36.28c4.41,0,7.12,2.81,7.12,7.13v55.12h-50.62Zm-57.38-5.53c0,13.03,7.88,20.62,21.09,20.62h123.28c13.22,0,21-7.59,21-20.62v-74.44L117.56,37.5c-3.56-3-7.78-2.91-11.25,0L29.25,102.09v74.44ZM8.06,100.12c2.62,0,4.78-1.41,6.75-3L108.66,18.28c1.03-.84,2.25-1.31,3.28-1.31,1.12,0,2.25.47,3.28,1.31l93.94,78.84c1.88,1.59,4.03,3,6.66,3,5.06,0,8.06-3.66,8.06-7.5,0-2.16-.84-4.41-3-6.09L123.19,4.5c-3.56-3-7.41-4.5-11.25-4.5s-7.69,1.5-11.25,4.5L3,86.53c-2.06,1.69-3,3.94-3,6.09,0,3.84,3,7.5,8.06,7.5Zm164.91-49.78l23.53,19.88V27.94c0-4.12-2.62-6.75-6.75-6.75h-10.03c-4.03,0-6.75,2.62-6.75,6.75v22.41Z"/>
  </g>
</svg>